<svg xmlns="http://www.w3.org/2000/svg" fill="none" viewBox="0 0 171 137"><g fill="#000" clip-path="url(#a)"><path d="M68.4 34.25a8.55 8.55 0 1 0-17.1 0v68.5a8.55 8.55 0 0 0 8.55 8.56 8.55 8.55 0 0 0 8.55-8.56v-68.5Zm51.3 8.56a8.55 8.55 0 1 0-17.1 0V94.2a8.55 8.55 0 1 0 17.1 0V42.8ZM0 68.5a8.56 8.56 0 1 0 17.12.01A8.56 8.56 0 0 0 0 68.5Zm153.9 0a8.56 8.56 0 1 0 17.12.01 8.56 8.56 0 0 0-17.12-.01Z"/><path d="M85.5 0a8.55 8.55 0 0 1 8.55 8.56v119.88A8.55 8.55 0 0 1 85.5 137a8.55 8.55 0 0 1-8.55-8.56V8.56A8.55 8.55 0 0 1 85.5 0Zm51.3 17.13a8.55 8.55 0 0 1 8.55 8.56v85.62a8.55 8.55 0 1 1-17.1 0V25.7a8.55 8.55 0 0 1 8.55-8.56ZM34.2 51.38a8.55 8.55 0 0 1 8.55 8.56v17.12a8.55 8.55 0 1 1-17.1 0V59.94a8.55 8.55 0 0 1 8.55-8.56Z" opacity=".4"/></g><defs><clipPath id="a"><path fill="#fff" d="M0 0h171v137H0z"/></clipPath></defs></svg>