<svg fill="none" xmlns="http://www.w3.org/2000/svg" viewBox="0 0 171 137"><g clip-path="url(#a)" fill="#000"><path d="M68.4 34.25c0-4.736-3.82-8.563-8.55-8.563s-8.55 3.827-8.55 8.563v68.5a8.547 8.547 0 0 0 8.55 8.562c4.73 0 8.55-3.826 8.55-8.562v-68.5Zm51.3 8.563c0-4.737-3.821-8.563-8.55-8.563-4.729 0-8.55 3.826-8.55 8.563v51.374c0 4.737 3.821 8.563 8.55 8.563 4.729 0 8.55-3.826 8.55-8.563V42.813ZM0 68.5c0 4.728 3.829 8.563 8.55 8.563s8.55-3.835 8.55-8.563c0-4.728-3.829-8.563-8.55-8.563S0 63.773 0 68.5Zm153.9 0c0 4.728 3.829 8.563 8.55 8.563S171 73.228 171 68.5c0-4.728-3.829-8.563-8.55-8.563s-8.55 3.835-8.55 8.563Z"/><path opacity=".4" d="M85.5 0c4.73 0 8.55 3.826 8.55 8.563v119.875A8.547 8.547 0 0 1 85.5 137a8.547 8.547 0 0 1-8.55-8.562V8.563C76.95 3.825 80.77 0 85.5 0Zm51.3 17.125c4.729 0 8.55 3.826 8.55 8.563v85.624c0 4.737-3.821 8.563-8.55 8.563-4.729 0-8.55-3.826-8.55-8.563V25.688c0-4.737 3.821-8.563 8.55-8.563ZM34.2 51.375c4.73 0 8.55 3.826 8.55 8.563v17.124c0 4.737-3.82 8.563-8.55 8.563s-8.55-3.826-8.55-8.563V59.939c0-4.737 3.82-8.563 8.55-8.563Z"/></g><defs><clipPath id="a"><path fill="#fff" d="M0 0h171v137H0z"/></clipPath></defs></svg>